<svg width="20" height="20" viewBox="0 0 20 20" fill="none" xmlns="http://www.w3.org/2000/svg">
<path fill-rule="evenodd" clip-rule="evenodd" d="M15.5518 16.6185C15.5055 16.5722 15.4306 16.5624 15.38 16.6039C13.8614 17.8508 11.9179 18.5993 9.79965 18.5993C4.93974 18.5993 1 14.6596 1 9.79965C1 4.93974 4.93974 1 9.79965 1C14.6596 1 18.5993 4.93974 18.5993 9.79965C18.5993 11.9179 17.8508 13.8614 16.6039 15.38C16.5624 15.4306 16.5722 15.5055 16.6185 15.5518L18.7791 17.7124C19.0736 18.007 19.0736 18.4845 18.7791 18.7791C18.4845 19.0736 18.007 19.0736 17.7124 18.7791L15.5518 16.6185ZM17.0908 9.79965C17.0908 13.8264 13.8264 17.0908 9.79965 17.0908C5.77287 17.0908 2.50851 13.8264 2.50851 9.79965C2.50851 5.77287 5.77287 2.50851 9.79965 2.50851C13.8264 2.50851 17.0908 5.77287 17.0908 9.79965Z" fill="black"/>
</svg>
